<svg width="100" height="100" viewBox="0 0 100 100" fill="none" xmlns="http://www.w3.org/2000/svg">
<rect x="11.5" y="16.5" width="77" height="67" rx="6.5" stroke="white" stroke-width="3"/>
<path d="M11 30H89" stroke="white" stroke-width="3"/>
<path d="M39.751 44.1445H36.7725L36.1035 46H35.1367L37.8516 38.8906H38.6719L41.3916 46H40.4297L39.751 44.1445ZM37.0557 43.373H39.4727L38.2617 40.0479L37.0557 43.373ZM41.9873 43.3145C41.9873 42.5039 42.1794 41.8529 42.5635 41.3613C42.9476 40.8665 43.4505 40.6191 44.0723 40.6191C44.6908 40.6191 45.1807 40.8307 45.542 41.2539V38.5H46.4453V46H45.6152L45.5713 45.4336C45.21 45.8763 44.707 46.0977 44.0625 46.0977C43.4505 46.0977 42.9508 45.847 42.5635 45.3457C42.1794 44.8444 41.9873 44.1901 41.9873 43.3828V43.3145ZM42.8906 43.417C42.8906 44.016 43.0143 44.4847 43.2617 44.8232C43.5091 45.1618 43.8509 45.3311 44.2871 45.3311C44.86 45.3311 45.2783 45.0739 45.542 44.5596V42.1328C45.2718 41.6348 44.8568 41.3857 44.2969 41.3857C43.8542 41.3857 43.5091 41.5566 43.2617 41.8984C43.0143 42.2402 42.8906 42.7464 42.8906 43.417ZM47.6123 43.3096C47.6123 42.792 47.7132 42.3265 47.915 41.9131C48.1201 41.4997 48.4033 41.1807 48.7646 40.9561C49.1292 40.7314 49.5443 40.6191 50.0098 40.6191C50.7292 40.6191 51.3102 40.8682 51.7529 41.3662C52.1989 41.8643 52.4219 42.5267 52.4219 43.3535V43.417C52.4219 43.9313 52.3226 44.3936 52.124 44.8037C51.9287 45.2106 51.6471 45.528 51.2793 45.7559C50.9147 45.9837 50.4948 46.0977 50.0195 46.0977C49.3034 46.0977 48.7223 45.8486 48.2764 45.3506C47.8337 44.8525 47.6123 44.1934 47.6123 43.373V43.3096ZM48.5205 43.417C48.5205 44.0029 48.6556 44.4733 48.9258 44.8281C49.1992 45.1829 49.5638 45.3604 50.0195 45.3604C50.4785 45.3604 50.8431 45.1813 51.1133 44.8232C51.3835 44.4619 51.5186 43.9574 51.5186 43.3096C51.5186 42.7301 51.3802 42.2614 51.1035 41.9033C50.8301 41.542 50.4655 41.3613 50.0098 41.3613C49.5638 41.3613 49.2041 41.5387 48.9307 41.8936C48.6572 42.2484 48.5205 42.7562 48.5205 43.417ZM58.0273 43.417C58.0273 44.2243 57.8418 44.8737 57.4707 45.3652C57.0996 45.8535 56.6016 46.0977 55.9766 46.0977C55.3092 46.0977 54.7933 45.8617 54.4287 45.3896L54.3848 46H53.5547V38.5H54.458V41.2979C54.8226 40.8454 55.3255 40.6191 55.9668 40.6191C56.6081 40.6191 57.111 40.8617 57.4756 41.3467C57.8434 41.8317 58.0273 42.4958 58.0273 43.3389V43.417ZM57.124 43.3145C57.124 42.6992 57.0052 42.224 56.7676 41.8887C56.5299 41.5534 56.1882 41.3857 55.7422 41.3857C55.1465 41.3857 54.7184 41.6624 54.458 42.2158V44.501C54.7347 45.0544 55.166 45.3311 55.752 45.3311C56.1849 45.3311 56.5218 45.1634 56.7627 44.8281C57.0036 44.4928 57.124 43.9883 57.124 43.3145ZM61.3623 46.0977C60.6462 46.0977 60.0635 45.8633 59.6143 45.3945C59.165 44.9225 58.9404 44.2926 58.9404 43.5049V43.3389C58.9404 42.8148 59.0397 42.3477 59.2383 41.9375C59.4401 41.5241 59.7201 41.2018 60.0781 40.9707C60.4395 40.7363 60.8301 40.6191 61.25 40.6191C61.9368 40.6191 62.4707 40.8454 62.8516 41.2979C63.2324 41.7503 63.4229 42.3981 63.4229 43.2412V43.6172H59.8438C59.8568 44.138 60.0081 44.5596 60.2979 44.8818C60.5908 45.2008 60.9619 45.3604 61.4111 45.3604C61.7301 45.3604 62.0003 45.2952 62.2217 45.165C62.443 45.0348 62.6367 44.8623 62.8027 44.6475L63.3545 45.0771C62.9118 45.7575 62.2477 46.0977 61.3623 46.0977ZM61.25 41.3613C60.8854 41.3613 60.5794 41.4948 60.332 41.7617C60.0846 42.0254 59.9316 42.3965 59.873 42.875H62.5195V42.8066C62.4935 42.3477 62.3698 41.9928 62.1484 41.7422C61.9271 41.4883 61.6276 41.3613 61.25 41.3613Z" fill="white"/>
<path d="M43.3574 58.6836L46.0234 53.7812H49.3926L45.252 60.832L49.5 68H46.0918L43.3574 63.0195L40.623 68H37.2148L41.4629 60.832L37.3223 53.7812H40.6914L43.3574 58.6836ZM50.9844 68V53.7812H55.3594C56.6094 53.7812 57.7259 54.0645 58.709 54.6309C59.6986 55.1908 60.4701 55.9915 61.0234 57.0332C61.5768 58.0684 61.8535 59.2467 61.8535 60.5684V61.2227C61.8535 62.5443 61.5801 63.7194 61.0332 64.748C60.4928 65.7767 59.7279 66.5742 58.7383 67.1406C57.7487 67.707 56.6322 67.9935 55.3887 68H50.9844ZM53.9141 56.1543V65.6465H55.3301C56.4759 65.6465 57.3516 65.2721 57.957 64.5234C58.5625 63.7747 58.8717 62.7038 58.8848 61.3105V60.5586C58.8848 59.1133 58.5853 58.0195 57.9863 57.2773C57.3874 56.5286 56.5117 56.1543 55.3594 56.1543H53.9141Z" fill="white"/>
<circle cx="84" cy="26" r="1" fill="white"/>
<circle cx="81" cy="26" r="1" fill="white"/>
<circle cx="78" cy="26" r="1" fill="white"/>
</svg>
