<svg width="100" height="100" viewBox="0 0 100 100" fill="none" xmlns="http://www.w3.org/2000/svg">
<rect x="11.5" y="16.5" width="77" height="67" rx="6.5" stroke="white" stroke-width="3"/>
<path d="M11 30H89" stroke="white" stroke-width="3"/>
<path d="M39.751 44.1445H36.7725L36.1035 46H35.1367L37.8516 38.8906H38.6719L41.3916 46H40.4297L39.751 44.1445ZM37.0557 43.373H39.4727L38.2617 40.0479L37.0557 43.373ZM41.9873 43.3145C41.9873 42.5039 42.1794 41.8529 42.5635 41.3613C42.9476 40.8665 43.4505 40.6191 44.0723 40.6191C44.6908 40.6191 45.1807 40.8307 45.542 41.2539V38.5H46.4453V46H45.6152L45.5713 45.4336C45.21 45.8763 44.707 46.0977 44.0625 46.0977C43.4505 46.0977 42.9508 45.847 42.5635 45.3457C42.1794 44.8444 41.9873 44.1901 41.9873 43.3828V43.3145ZM42.8906 43.417C42.8906 44.016 43.0143 44.4847 43.2617 44.8232C43.5091 45.1618 43.8509 45.3311 44.2871 45.3311C44.86 45.3311 45.2783 45.0739 45.542 44.5596V42.1328C45.2718 41.6348 44.8568 41.3857 44.2969 41.3857C43.8542 41.3857 43.5091 41.5566 43.2617 41.8984C43.0143 42.2402 42.8906 42.7464 42.8906 43.417ZM47.6123 43.3096C47.6123 42.792 47.7132 42.3265 47.915 41.9131C48.1201 41.4997 48.4033 41.1807 48.7646 40.9561C49.1292 40.7314 49.5443 40.6191 50.0098 40.6191C50.7292 40.6191 51.3102 40.8682 51.7529 41.3662C52.1989 41.8643 52.4219 42.5267 52.4219 43.3535V43.417C52.4219 43.9313 52.3226 44.3936 52.124 44.8037C51.9287 45.2106 51.6471 45.528 51.2793 45.7559C50.9147 45.9837 50.4948 46.0977 50.0195 46.0977C49.3034 46.0977 48.7223 45.8486 48.2764 45.3506C47.8337 44.8525 47.6123 44.1934 47.6123 43.373V43.3096ZM48.5205 43.417C48.5205 44.0029 48.6556 44.4733 48.9258 44.8281C49.1992 45.1829 49.5638 45.3604 50.0195 45.3604C50.4785 45.3604 50.8431 45.1813 51.1133 44.8232C51.3835 44.4619 51.5186 43.9574 51.5186 43.3096C51.5186 42.7301 51.3802 42.2614 51.1035 41.9033C50.8301 41.542 50.4655 41.3613 50.0098 41.3613C49.5638 41.3613 49.2041 41.5387 48.9307 41.8936C48.6572 42.2484 48.5205 42.7562 48.5205 43.417ZM58.0273 43.417C58.0273 44.2243 57.8418 44.8737 57.4707 45.3652C57.0996 45.8535 56.6016 46.0977 55.9766 46.0977C55.3092 46.0977 54.7933 45.8617 54.4287 45.3896L54.3848 46H53.5547V38.5H54.458V41.2979C54.8226 40.8454 55.3255 40.6191 55.9668 40.6191C56.6081 40.6191 57.111 40.8617 57.4756 41.3467C57.8434 41.8317 58.0273 42.4958 58.0273 43.3389V43.417ZM57.124 43.3145C57.124 42.6992 57.0052 42.224 56.7676 41.8887C56.5299 41.5534 56.1882 41.3857 55.7422 41.3857C55.1465 41.3857 54.7184 41.6624 54.458 42.2158V44.501C54.7347 45.0544 55.166 45.3311 55.752 45.3311C56.1849 45.3311 56.5218 45.1634 56.7627 44.8281C57.0036 44.4928 57.124 43.9883 57.124 43.3145ZM61.3623 46.0977C60.6462 46.0977 60.0635 45.8633 59.6143 45.3945C59.165 44.9225 58.9404 44.2926 58.9404 43.5049V43.3389C58.9404 42.8148 59.0397 42.3477 59.2383 41.9375C59.4401 41.5241 59.7201 41.2018 60.0781 40.9707C60.4395 40.7363 60.8301 40.6191 61.25 40.6191C61.9368 40.6191 62.4707 40.8454 62.8516 41.2979C63.2324 41.7503 63.4229 42.3981 63.4229 43.2412V43.6172H59.8438C59.8568 44.138 60.0081 44.5596 60.2979 44.8818C60.5908 45.2008 60.9619 45.3604 61.4111 45.3604C61.7301 45.3604 62.0003 45.2952 62.2217 45.165C62.443 45.0348 62.6367 44.8623 62.8027 44.6475L63.3545 45.0771C62.9118 45.7575 62.2477 46.0977 61.3623 46.0977ZM61.25 41.3613C60.8854 41.3613 60.5794 41.4948 60.332 41.7617C60.0846 42.0254 59.9316 42.3965 59.873 42.875H62.5195V42.8066C62.4935 42.3477 62.3698 41.9928 62.1484 41.7422C61.9271 41.4883 61.6276 41.3613 61.25 41.3613Z" fill="white"/>
<path d="M41.1992 62.9902V68H38.2695V53.7812H43.8164C44.8841 53.7812 45.8216 53.9766 46.6289 54.3672C47.4427 54.7578 48.0677 55.3145 48.5039 56.0371C48.9401 56.7533 49.1582 57.5703 49.1582 58.4883C49.1582 59.8815 48.6797 60.9818 47.7227 61.7891C46.7721 62.5898 45.4538 62.9902 43.7676 62.9902H41.1992ZM41.1992 60.6172H43.8164C44.5911 60.6172 45.1803 60.4349 45.584 60.0703C45.9941 59.7057 46.1992 59.1849 46.1992 58.5078C46.1992 57.8112 45.9941 57.248 45.584 56.8184C45.1738 56.3887 44.6074 56.1673 43.8848 56.1543H41.1992V60.6172ZM58.5527 64.2695C58.5527 63.7161 58.3574 63.293 57.9668 63C57.5762 62.7005 56.873 62.388 55.8574 62.0625C54.8418 61.7305 54.0378 61.4049 53.4453 61.0859C51.8307 60.2135 51.0234 59.0384 51.0234 57.5605C51.0234 56.7923 51.2383 56.1087 51.668 55.5098C52.1042 54.9043 52.7259 54.4323 53.5332 54.0938C54.347 53.7552 55.2585 53.5859 56.2676 53.5859C57.2832 53.5859 58.1882 53.7715 58.9824 54.1426C59.7767 54.5072 60.3919 55.0247 60.8281 55.6953C61.2708 56.3659 61.4922 57.1276 61.4922 57.9805H58.5625C58.5625 57.3294 58.3574 56.8249 57.9473 56.4668C57.5371 56.1022 56.9609 55.9199 56.2188 55.9199C55.5026 55.9199 54.946 56.0729 54.5488 56.3789C54.1517 56.6784 53.9531 57.0755 53.9531 57.5703C53.9531 58.0326 54.1842 58.4199 54.6465 58.7324C55.1152 59.0449 55.8021 59.3379 56.707 59.6113C58.3737 60.1126 59.5879 60.7344 60.3496 61.4766C61.1113 62.2188 61.4922 63.1432 61.4922 64.25C61.4922 65.4805 61.0267 66.4473 60.0957 67.1504C59.1647 67.847 57.9115 68.1953 56.3359 68.1953C55.2422 68.1953 54.2461 67.9967 53.3477 67.5996C52.4492 67.196 51.7624 66.6458 51.2871 65.9492C50.8184 65.2526 50.584 64.4453 50.584 63.5273H53.5234C53.5234 65.0964 54.4609 65.8809 56.3359 65.8809C57.0326 65.8809 57.5762 65.7409 57.9668 65.4609C58.3574 65.1745 58.5527 64.7773 58.5527 64.2695Z" fill="white"/>
<circle cx="84" cy="26" r="1" fill="white"/>
<circle cx="81" cy="26" r="1" fill="white"/>
<circle cx="78" cy="26" r="1" fill="white"/>
</svg>
