<svg width="100" height="100" viewBox="0 0 100 100" fill="none" xmlns="http://www.w3.org/2000/svg">
<rect x="11.5" y="16.5" width="77" height="67" rx="6.5" stroke="white" stroke-width="3"/>
<path d="M11 30H89" stroke="white" stroke-width="3"/>
<path d="M42.7227 65.5156C40.3789 64.8581 39.207 63.3444 39.207 60.9746V59.0312C39.207 57.6576 38.6276 56.9707 37.4688 56.9707V54.9492C38.6016 54.9492 39.181 54.3014 39.207 53.0059V50.9355C39.207 49.7311 39.5 48.7578 40.0859 48.0156C40.6719 47.2734 41.5508 46.7363 42.7227 46.4043L43.2695 47.9766C42.7747 48.1589 42.4004 48.4779 42.1465 48.9336C41.8926 49.3828 41.7591 50.0078 41.7461 50.8086V52.8594C41.7461 54.3307 41.1634 55.3626 39.998 55.9551C41.1634 56.554 41.7461 57.5924 41.7461 59.0703V61.1406C41.7786 62.6641 42.2865 63.5951 43.2695 63.9336L42.7227 65.5156ZM44.8711 62V47.7812H49.8516C51.5768 47.7812 52.8854 48.1133 53.7773 48.7773C54.6693 49.4349 55.1152 50.4017 55.1152 51.6777C55.1152 52.3743 54.9362 52.9896 54.5781 53.5234C54.2201 54.0508 53.722 54.4382 53.084 54.6855C53.8132 54.8678 54.3861 55.2357 54.8027 55.7891C55.2259 56.3424 55.4375 57.0195 55.4375 57.8203C55.4375 59.1875 55.0013 60.2227 54.1289 60.9258C53.2565 61.6289 52.013 61.987 50.3984 62H44.8711ZM47.8008 55.8086V59.6465H50.3105C51.0007 59.6465 51.5378 59.4837 51.9219 59.1582C52.3125 58.8262 52.5078 58.3704 52.5078 57.791C52.5078 56.4889 51.834 55.8281 50.4863 55.8086H47.8008ZM47.8008 53.7383H49.9688C51.4466 53.7122 52.1855 53.123 52.1855 51.9707C52.1855 51.3262 51.9967 50.8639 51.6191 50.584C51.248 50.2975 50.6589 50.1543 49.8516 50.1543H47.8008V53.7383ZM56.707 63.9336C57.6966 63.582 58.2044 62.638 58.2305 61.1016V59.0312C58.2305 57.5599 58.8262 56.5378 60.0176 55.9648C58.8262 55.3919 58.2305 54.3535 58.2305 52.8496V50.8086C58.2044 49.2917 57.6966 48.3477 56.707 47.9766L57.2539 46.4043C58.4193 46.7298 59.2949 47.2637 59.8809 48.0059C60.4668 48.7415 60.763 49.7083 60.7695 50.9062V53.0059C60.7956 54.3014 61.375 54.9492 62.5078 54.9492V56.9707C61.349 56.9707 60.7695 57.651 60.7695 59.0117V61.1309C60.7174 63.4095 59.5456 64.8711 57.2539 65.5156L56.707 63.9336Z" fill="white"/>
<circle cx="84" cy="26" r="1" fill="white"/>
<circle cx="81" cy="26" r="1" fill="white"/>
<circle cx="78" cy="26" r="1" fill="white"/>
</svg>
