<svg width="100" height="100" viewBox="0 0 100 100" fill="none" xmlns="http://www.w3.org/2000/svg">
<rect x="11.5" y="16.5" width="77" height="67" rx="6.5" stroke="white" stroke-width="3"/>
<path d="M11 30H89" stroke="white" stroke-width="3"/>
<circle cx="69" cy="47" r="1" fill="#121212" fill-opacity="0.68"/>
<circle cx="69" cy="42" r="2" fill="#121212" fill-opacity="0.68"/>
<circle cx="75" cy="48" r="3" fill="#121212" fill-opacity="0.68"/>
<circle cx="68" cy="52" r="2" fill="#121212" fill-opacity="0.68"/>
<circle cx="65.5" cy="45.5" r="1.5" fill="#121212" fill-opacity="0.68"/>
<path d="M23.2422 74.4883C23.5 74.4883 23.7253 74.4102 23.918 74.2539C24.1107 74.0977 24.2174 73.9023 24.2383 73.668H24.9219C24.9089 73.9102 24.8255 74.1406 24.6719 74.3594C24.5182 74.5781 24.3125 74.7526 24.0547 74.8828C23.7995 75.013 23.5286 75.0781 23.2422 75.0781C22.6667 75.0781 22.2083 74.8867 21.8672 74.5039C21.5286 74.1185 21.3594 73.5924 21.3594 72.9258V72.8047C21.3594 72.3932 21.4349 72.0273 21.5859 71.707C21.737 71.3867 21.9531 71.138 22.2344 70.9609C22.5182 70.7839 22.8529 70.6953 23.2383 70.6953C23.7122 70.6953 24.1055 70.8372 24.418 71.1211C24.7331 71.4049 24.901 71.7734 24.9219 72.2266H24.2383C24.2174 71.9531 24.1133 71.7292 23.9258 71.5547C23.7409 71.3776 23.5117 71.2891 23.2383 71.2891C22.8711 71.2891 22.5859 71.4219 22.3828 71.6875C22.1823 71.9505 22.082 72.332 22.082 72.832V72.9688C22.082 73.4557 22.1823 73.8307 22.3828 74.0938C22.5833 74.3568 22.8698 74.4883 23.2422 74.4883ZM28.1953 73.8789C28.1953 73.6836 28.1211 73.5326 27.9727 73.4258C27.8268 73.3164 27.5703 73.2227 27.2031 73.1445C26.8385 73.0664 26.5482 72.9727 26.332 72.8633C26.1185 72.7539 25.9596 72.6237 25.8555 72.4727C25.7539 72.3216 25.7031 72.1419 25.7031 71.9336C25.7031 71.5872 25.849 71.2943 26.1406 71.0547C26.4349 70.8151 26.8099 70.6953 27.2656 70.6953C27.7448 70.6953 28.1328 70.819 28.4297 71.0664C28.7292 71.3138 28.8789 71.6302 28.8789 72.0156H28.1523C28.1523 71.8177 28.0677 71.6471 27.8984 71.5039C27.7318 71.3607 27.5208 71.2891 27.2656 71.2891C27.0026 71.2891 26.7969 71.3464 26.6484 71.4609C26.5 71.5755 26.4258 71.7253 26.4258 71.9102C26.4258 72.0846 26.4948 72.2161 26.6328 72.3047C26.7708 72.3932 27.0195 72.4779 27.3789 72.5586C27.7409 72.6393 28.0339 72.7357 28.2578 72.8477C28.4818 72.9596 28.6471 73.0951 28.7539 73.2539C28.8633 73.4102 28.918 73.6016 28.918 73.8281C28.918 74.2057 28.7669 74.5091 28.4648 74.7383C28.1628 74.9648 27.7708 75.0781 27.2891 75.0781C26.9505 75.0781 26.651 75.0182 26.3906 74.8984C26.1302 74.7786 25.9258 74.612 25.7773 74.3984C25.6315 74.1823 25.5586 73.9492 25.5586 73.6992H26.2812C26.2943 73.9414 26.3906 74.1341 26.5703 74.2773C26.7526 74.418 26.9922 74.4883 27.2891 74.4883C27.5625 74.4883 27.7812 74.4336 27.9453 74.3242C28.112 74.2122 28.1953 74.0638 28.1953 73.8789ZM32.3203 73.8789C32.3203 73.6836 32.2461 73.5326 32.0977 73.4258C31.9518 73.3164 31.6953 73.2227 31.3281 73.1445C30.9635 73.0664 30.6732 72.9727 30.457 72.8633C30.2435 72.7539 30.0846 72.6237 29.9805 72.4727C29.8789 72.3216 29.8281 72.1419 29.8281 71.9336C29.8281 71.5872 29.974 71.2943 30.2656 71.0547C30.5599 70.8151 30.9349 70.6953 31.3906 70.6953C31.8698 70.6953 32.2578 70.819 32.5547 71.0664C32.8542 71.3138 33.0039 71.6302 33.0039 72.0156H32.2773C32.2773 71.8177 32.1927 71.6471 32.0234 71.5039C31.8568 71.3607 31.6458 71.2891 31.3906 71.2891C31.1276 71.2891 30.9219 71.3464 30.7734 71.4609C30.625 71.5755 30.5508 71.7253 30.5508 71.9102C30.5508 72.0846 30.6198 72.2161 30.7578 72.3047C30.8958 72.3932 31.1445 72.4779 31.5039 72.5586C31.8659 72.6393 32.1589 72.7357 32.3828 72.8477C32.6068 72.9596 32.7721 73.0951 32.8789 73.2539C32.9883 73.4102 33.043 73.6016 33.043 73.8281C33.043 74.2057 32.8919 74.5091 32.5898 74.7383C32.2878 74.9648 31.8958 75.0781 31.4141 75.0781C31.0755 75.0781 30.776 75.0182 30.5156 74.8984C30.2552 74.7786 30.0508 74.612 29.9023 74.3984C29.7565 74.1823 29.6836 73.9492 29.6836 73.6992H30.4062C30.4193 73.9414 30.5156 74.1341 30.6953 74.2773C30.8776 74.418 31.1172 74.4883 31.4141 74.4883C31.6875 74.4883 31.9062 74.4336 32.0703 74.3242C32.237 74.2122 32.3203 74.0638 32.3203 73.8789ZM34.1289 75.4883H33.5078L35.8828 69.3125H36.5L34.1289 75.4883ZM39.7422 73.8789C39.7422 73.6836 39.668 73.5326 39.5195 73.4258C39.3737 73.3164 39.1172 73.2227 38.75 73.1445C38.3854 73.0664 38.0951 72.9727 37.8789 72.8633C37.6654 72.7539 37.5065 72.6237 37.4023 72.4727C37.3008 72.3216 37.25 72.1419 37.25 71.9336C37.25 71.5872 37.3958 71.2943 37.6875 71.0547C37.9818 70.8151 38.3568 70.6953 38.8125 70.6953C39.2917 70.6953 39.6797 70.819 39.9766 71.0664C40.276 71.3138 40.4258 71.6302 40.4258 72.0156H39.6992C39.6992 71.8177 39.6146 71.6471 39.4453 71.5039C39.2786 71.3607 39.0677 71.2891 38.8125 71.2891C38.5495 71.2891 38.3438 71.3464 38.1953 71.4609C38.0469 71.5755 37.9727 71.7253 37.9727 71.9102C37.9727 72.0846 38.0417 72.2161 38.1797 72.3047C38.3177 72.3932 38.5664 72.4779 38.9258 72.5586C39.2878 72.6393 39.5807 72.7357 39.8047 72.8477C40.0286 72.9596 40.194 73.0951 40.3008 73.2539C40.4102 73.4102 40.4648 73.6016 40.4648 73.8281C40.4648 74.2057 40.3138 74.5091 40.0117 74.7383C39.7096 74.9648 39.3177 75.0781 38.8359 75.0781C38.4974 75.0781 38.1979 75.0182 37.9375 74.8984C37.6771 74.7786 37.4727 74.612 37.3242 74.3984C37.1784 74.1823 37.1055 73.9492 37.1055 73.6992H37.8281C37.8411 73.9414 37.9375 74.1341 38.1172 74.2773C38.2995 74.418 38.5391 74.4883 38.8359 74.4883C39.1094 74.4883 39.3281 74.4336 39.4922 74.3242C39.6589 74.2122 39.7422 74.0638 39.7422 73.8789ZM43.1016 74.4883C43.3594 74.4883 43.5846 74.4102 43.7773 74.2539C43.9701 74.0977 44.0768 73.9023 44.0977 73.668H44.7812C44.7682 73.9102 44.6849 74.1406 44.5312 74.3594C44.3776 74.5781 44.1719 74.7526 43.9141 74.8828C43.6589 75.013 43.388 75.0781 43.1016 75.0781C42.526 75.0781 42.0677 74.8867 41.7266 74.5039C41.388 74.1185 41.2188 73.5924 41.2188 72.9258V72.8047C41.2188 72.3932 41.2943 72.0273 41.4453 71.707C41.5964 71.3867 41.8125 71.138 42.0938 70.9609C42.3776 70.7839 42.7122 70.6953 43.0977 70.6953C43.5716 70.6953 43.9648 70.8372 44.2773 71.1211C44.5924 71.4049 44.7604 71.7734 44.7812 72.2266H44.0977C44.0768 71.9531 43.9727 71.7292 43.7852 71.5547C43.6003 71.3776 43.3711 71.2891 43.0977 71.2891C42.7305 71.2891 42.4453 71.4219 42.2422 71.6875C42.0417 71.9505 41.9414 72.332 41.9414 72.832V72.9688C41.9414 73.4557 42.0417 73.8307 42.2422 74.0938C42.4427 74.3568 42.7292 74.4883 43.1016 74.4883ZM48.0547 73.8789C48.0547 73.6836 47.9805 73.5326 47.832 73.4258C47.6862 73.3164 47.4297 73.2227 47.0625 73.1445C46.6979 73.0664 46.4076 72.9727 46.1914 72.8633C45.9779 72.7539 45.819 72.6237 45.7148 72.4727C45.6133 72.3216 45.5625 72.1419 45.5625 71.9336C45.5625 71.5872 45.7083 71.2943 46 71.0547C46.2943 70.8151 46.6693 70.6953 47.125 70.6953C47.6042 70.6953 47.9922 70.819 48.2891 71.0664C48.5885 71.3138 48.7383 71.6302 48.7383 72.0156H48.0117C48.0117 71.8177 47.9271 71.6471 47.7578 71.5039C47.5911 71.3607 47.3802 71.2891 47.125 71.2891C46.862 71.2891 46.6562 71.3464 46.5078 71.4609C46.3594 71.5755 46.2852 71.7253 46.2852 71.9102C46.2852 72.0846 46.3542 72.2161 46.4922 72.3047C46.6302 72.3932 46.8789 72.4779 47.2383 72.5586C47.6003 72.6393 47.8932 72.7357 48.1172 72.8477C48.3411 72.9596 48.5065 73.0951 48.6133 73.2539C48.7227 73.4102 48.7773 73.6016 48.7773 73.8281C48.7773 74.2057 48.6263 74.5091 48.3242 74.7383C48.0221 74.9648 47.6302 75.0781 47.1484 75.0781C46.8099 75.0781 46.5104 75.0182 46.25 74.8984C45.9896 74.7786 45.7852 74.612 45.6367 74.3984C45.4909 74.1823 45.418 73.9492 45.418 73.6992H46.1406C46.1536 73.9414 46.25 74.1341 46.4297 74.2773C46.612 74.418 46.8516 74.4883 47.1484 74.4883C47.4219 74.4883 47.6406 74.4336 47.8047 74.3242C47.9714 74.2122 48.0547 74.0638 48.0547 73.8789ZM52.1797 73.8789C52.1797 73.6836 52.1055 73.5326 51.957 73.4258C51.8112 73.3164 51.5547 73.2227 51.1875 73.1445C50.8229 73.0664 50.5326 72.9727 50.3164 72.8633C50.1029 72.7539 49.944 72.6237 49.8398 72.4727C49.7383 72.3216 49.6875 72.1419 49.6875 71.9336C49.6875 71.5872 49.8333 71.2943 50.125 71.0547C50.4193 70.8151 50.7943 70.6953 51.25 70.6953C51.7292 70.6953 52.1172 70.819 52.4141 71.0664C52.7135 71.3138 52.8633 71.6302 52.8633 72.0156H52.1367C52.1367 71.8177 52.0521 71.6471 51.8828 71.5039C51.7161 71.3607 51.5052 71.2891 51.25 71.2891C50.987 71.2891 50.7812 71.3464 50.6328 71.4609C50.4844 71.5755 50.4102 71.7253 50.4102 71.9102C50.4102 72.0846 50.4792 72.2161 50.6172 72.3047C50.7552 72.3932 51.0039 72.4779 51.3633 72.5586C51.7253 72.6393 52.0182 72.7357 52.2422 72.8477C52.4661 72.9596 52.6315 73.0951 52.7383 73.2539C52.8477 73.4102 52.9023 73.6016 52.9023 73.8281C52.9023 74.2057 52.7513 74.5091 52.4492 74.7383C52.1471 74.9648 51.7552 75.0781 51.2734 75.0781C50.9349 75.0781 50.6354 75.0182 50.375 74.8984C50.1146 74.7786 49.9102 74.612 49.7617 74.3984C49.6159 74.1823 49.543 73.9492 49.543 73.6992H50.2656C50.2786 73.9414 50.375 74.1341 50.5547 74.2773C50.737 74.418 50.9766 74.4883 51.2734 74.4883C51.5469 74.4883 51.7656 74.4336 51.9297 74.3242C52.0964 74.2122 52.1797 74.0638 52.1797 73.8789ZM53.9883 75.4883H53.3672L55.7422 69.3125H56.3594L53.9883 75.4883ZM59.6016 73.8789C59.6016 73.6836 59.5273 73.5326 59.3789 73.4258C59.2331 73.3164 58.9766 73.2227 58.6094 73.1445C58.2448 73.0664 57.9544 72.9727 57.7383 72.8633C57.5247 72.7539 57.3659 72.6237 57.2617 72.4727C57.1602 72.3216 57.1094 72.1419 57.1094 71.9336C57.1094 71.5872 57.2552 71.2943 57.5469 71.0547C57.8411 70.8151 58.2161 70.6953 58.6719 70.6953C59.151 70.6953 59.5391 70.819 59.8359 71.0664C60.1354 71.3138 60.2852 71.6302 60.2852 72.0156H59.5586C59.5586 71.8177 59.474 71.6471 59.3047 71.5039C59.138 71.3607 58.9271 71.2891 58.6719 71.2891C58.4089 71.2891 58.2031 71.3464 58.0547 71.4609C57.9062 71.5755 57.832 71.7253 57.832 71.9102C57.832 72.0846 57.901 72.2161 58.0391 72.3047C58.1771 72.3932 58.4258 72.4779 58.7852 72.5586C59.1471 72.6393 59.4401 72.7357 59.6641 72.8477C59.888 72.9596 60.0534 73.0951 60.1602 73.2539C60.2695 73.4102 60.3242 73.6016 60.3242 73.8281C60.3242 74.2057 60.1732 74.5091 59.8711 74.7383C59.569 74.9648 59.1771 75.0781 58.6953 75.0781C58.3568 75.0781 58.0573 75.0182 57.7969 74.8984C57.5365 74.7786 57.332 74.612 57.1836 74.3984C57.0378 74.1823 56.9648 73.9492 56.9648 73.6992H57.6875C57.7005 73.9414 57.7969 74.1341 57.9766 74.2773C58.1589 74.418 58.3984 74.4883 58.6953 74.4883C58.9688 74.4883 59.1875 74.4336 59.3516 74.3242C59.5182 74.2122 59.6016 74.0638 59.6016 73.8789ZM62.2461 69.75V70.7734H63.0352V71.332H62.2461V73.9531C62.2461 74.1224 62.2812 74.25 62.3516 74.3359C62.4219 74.4193 62.5417 74.4609 62.7109 74.4609C62.7943 74.4609 62.9089 74.4453 63.0547 74.4141V75C62.8646 75.0521 62.6797 75.0781 62.5 75.0781C62.1771 75.0781 61.9336 74.9805 61.7695 74.7852C61.6055 74.5898 61.5234 74.3125 61.5234 73.9531V71.332H60.7539V70.7734H61.5234V69.75H62.2461ZM65.2656 73.9414L66.25 70.7734H67.0234L65.3242 75.6523C65.0612 76.3555 64.6432 76.707 64.0703 76.707L63.9336 76.6953L63.6641 76.6445V76.0586L63.8594 76.0742C64.1042 76.0742 64.2943 76.0247 64.4297 75.9258C64.5677 75.8268 64.681 75.6458 64.7695 75.3828L64.9297 74.9531L63.4219 70.7734H64.2109L65.2656 73.9414ZM68.457 75H67.7344V69H68.457V75ZM72.2266 74.582C71.9453 74.9128 71.5326 75.0781 70.9883 75.0781C70.5378 75.0781 70.194 74.9479 69.957 74.6875C69.7227 74.4245 69.6042 74.0365 69.6016 73.5234V70.7734H70.3242V73.5039C70.3242 74.1445 70.5846 74.4648 71.1055 74.4648C71.6576 74.4648 72.0247 74.2591 72.207 73.8477V70.7734H72.9297V75H72.2422L72.2266 74.582ZM76.4922 73.8789C76.4922 73.6836 76.418 73.5326 76.2695 73.4258C76.1237 73.3164 75.8672 73.2227 75.5 73.1445C75.1354 73.0664 74.8451 72.9727 74.6289 72.8633C74.4154 72.7539 74.2565 72.6237 74.1523 72.4727C74.0508 72.3216 74 72.1419 74 71.9336C74 71.5872 74.1458 71.2943 74.4375 71.0547C74.7318 70.8151 75.1068 70.6953 75.5625 70.6953C76.0417 70.6953 76.4297 70.819 76.7266 71.0664C77.026 71.3138 77.1758 71.6302 77.1758 72.0156H76.4492C76.4492 71.8177 76.3646 71.6471 76.1953 71.5039C76.0286 71.3607 75.8177 71.2891 75.5625 71.2891C75.2995 71.2891 75.0938 71.3464 74.9453 71.4609C74.7969 71.5755 74.7227 71.7253 74.7227 71.9102C74.7227 72.0846 74.7917 72.2161 74.9297 72.3047C75.0677 72.3932 75.3164 72.4779 75.6758 72.5586C76.0378 72.6393 76.3307 72.7357 76.5547 72.8477C76.7786 72.9596 76.944 73.0951 77.0508 73.2539C77.1602 73.4102 77.2148 73.6016 77.2148 73.8281C77.2148 74.2057 77.0638 74.5091 76.7617 74.7383C76.4596 74.9648 76.0677 75.0781 75.5859 75.0781C75.2474 75.0781 74.9479 75.0182 74.6875 74.8984C74.4271 74.7786 74.2227 74.612 74.0742 74.3984C73.9284 74.1823 73.8555 73.9492 73.8555 73.6992H74.5781C74.5911 73.9414 74.6875 74.1341 74.8672 74.2773C75.0495 74.418 75.2891 74.4883 75.5859 74.4883C75.8594 74.4883 76.0781 74.4336 76.2422 74.3242C76.4089 74.2122 76.4922 74.0638 76.4922 73.8789Z" fill="white"/>
<path d="M35.6426 57.2695C35.6426 56.7161 35.4473 56.293 35.0566 56C34.666 55.7005 33.9629 55.388 32.9473 55.0625C31.9316 54.7305 31.1276 54.4049 30.5352 54.0859C28.9206 53.2135 28.1133 52.0384 28.1133 50.5605C28.1133 49.7923 28.3281 49.1087 28.7578 48.5098C29.194 47.9043 29.8158 47.4323 30.623 47.0938C31.4368 46.7552 32.3483 46.5859 33.3574 46.5859C34.373 46.5859 35.278 46.7715 36.0723 47.1426C36.8665 47.5072 37.4818 48.0247 37.918 48.6953C38.3607 49.3659 38.582 50.1276 38.582 50.9805H35.6523C35.6523 50.3294 35.4473 49.8249 35.0371 49.4668C34.627 49.1022 34.0508 48.9199 33.3086 48.9199C32.5924 48.9199 32.0358 49.0729 31.6387 49.3789C31.2415 49.6784 31.043 50.0755 31.043 50.5703C31.043 51.0326 31.2741 51.4199 31.7363 51.7324C32.2051 52.0449 32.8919 52.3379 33.7969 52.6113C35.4635 53.1126 36.6777 53.7344 37.4395 54.4766C38.2012 55.2188 38.582 56.1432 38.582 57.25C38.582 58.4805 38.1165 59.4473 37.1855 60.1504C36.2546 60.847 35.0013 61.1953 33.4258 61.1953C32.332 61.1953 31.3359 60.9967 30.4375 60.5996C29.5391 60.196 28.8522 59.6458 28.377 58.9492C27.9082 58.2526 27.6738 57.4453 27.6738 56.5273H30.6133C30.6133 58.0964 31.5508 58.8809 33.4258 58.8809C34.1224 58.8809 34.666 58.7409 35.0566 58.4609C35.4473 58.1745 35.6426 57.7773 35.6426 57.2695ZM43.7676 47.8359V50.4336H45.5742V52.5039H43.7676V57.7773C43.7676 58.168 43.8424 58.4479 43.9922 58.6172C44.1419 58.7865 44.4284 58.8711 44.8516 58.8711C45.1641 58.8711 45.4408 58.8483 45.6816 58.8027V60.9414C45.1283 61.1107 44.5586 61.1953 43.9727 61.1953C41.9935 61.1953 40.9844 60.196 40.9453 58.1973V52.5039H39.4023V50.4336H40.9453V47.8359H43.7676ZM51.0918 57.0059L53.0449 50.4336H56.0723L51.8242 62.6406L51.5898 63.1973C50.9583 64.5775 49.9167 65.2676 48.4648 65.2676C48.0547 65.2676 47.638 65.2057 47.2148 65.082V62.9434L47.6445 62.9531C48.1784 62.9531 48.5755 62.8717 48.8359 62.709C49.1029 62.5462 49.3112 62.276 49.4609 61.8984L49.793 61.0293L46.0918 50.4336H49.1289L51.0918 57.0059ZM60.1641 61H57.332V46H60.1641V61ZM67.3613 61.1953C65.8118 61.1953 64.5488 60.7201 63.5723 59.7695C62.6022 58.819 62.1172 57.5527 62.1172 55.9707V55.6973C62.1172 54.6361 62.3223 53.6888 62.7324 52.8555C63.1426 52.0156 63.722 51.3711 64.4707 50.9219C65.2259 50.4661 66.0853 50.2383 67.0488 50.2383C68.4941 50.2383 69.6302 50.694 70.457 51.6055C71.2904 52.5169 71.707 53.8092 71.707 55.4824V56.6348H64.9785C65.0697 57.3249 65.3431 57.8783 65.7988 58.2949C66.2611 58.7116 66.8438 58.9199 67.5469 58.9199C68.6341 58.9199 69.4837 58.526 70.0957 57.7383L71.4824 59.291C71.0592 59.89 70.4863 60.3587 69.7637 60.6973C69.041 61.0293 68.2402 61.1953 67.3613 61.1953ZM67.0391 52.5234C66.4792 52.5234 66.0234 52.7122 65.6719 53.0898C65.3268 53.4674 65.1055 54.0078 65.0078 54.7109H68.9336V54.4863C68.9206 53.8613 68.7513 53.3796 68.4258 53.041C68.1003 52.696 67.638 52.5234 67.0391 52.5234Z" fill="white"/>
<circle cx="84" cy="26" r="1" fill="white"/>
<circle cx="81" cy="26" r="1" fill="white"/>
<circle cx="78" cy="26" r="1" fill="white"/>
</svg>
