<svg width="54" height="54" viewBox="0 0 54 54" fill="none" xmlns="http://www.w3.org/2000/svg">
<path d="M43.7695 5.99072C43.9094 6.10178 44.0412 6.22803 44.1799 6.34235L44.1809 6.33866C44.0543 6.21221 43.9276 6.08564 43.7695 5.99072Z" fill="#FF7CB9"/>
<path d="M54.0004 27.5694C53.9688 28.6767 53.874 29.7526 53.7155 30.8282L45.8898 38.8966L37.9483 51.5528C36.9674 51.9957 35.9233 52.407 34.8474 52.7235L27.0005 45.3196L25.2921 43.7059L13.0787 50.0023C11.9397 49.3064 10.8323 48.547 9.81977 47.6926L6.81392 33.3596L0.0957031 24.5001C0.22216 23.4245 0.380362 22.3802 0.601845 21.3361L11.9079 13.5526L14.3126 3.30112C15.2935 2.76312 16.3376 2.28862 17.3818 1.90894L27.0005 4.81986L30.7974 5.99056L44.1812 6.3386C45.0987 7.09797 46.0165 7.92063 46.8075 8.8383L46.6808 20.1655L54.0004 27.5694Z" fill="#FA5E97"/>
<path d="M53.9999 27.5694C53.9682 28.6767 53.8734 29.7526 53.715 30.8283L45.8893 38.8967L37.9477 51.5529C36.9669 51.9958 35.9227 52.4071 34.8468 52.7236L27 45.3196V4.81982L30.7969 5.99052L44.1807 6.33857C45.0981 7.09794 46.0159 7.92059 46.8069 8.83827L46.6803 20.1655L53.9999 27.5694Z" fill="#D94F88"/>
<path d="M18.584 20.8617C21.1783 20.3554 23.7098 19.6594 26.1142 18.9C22.9187 13.0464 18.9637 7.76247 14.3124 3.30127C7.4782 6.97146 2.2784 13.5211 0.601562 21.3362C5.6325 22.3487 11.8446 22.2223 18.584 20.8617Z" fill="#FF7CB9"/>
<path d="M44.1802 6.33854L43.7373 8.07876C43.0413 10.8631 37.1562 14.8498 29.4359 17.7292L29.0877 17.8557C28.4234 16.6217 27.7272 15.3876 26.9996 14.2169C24.2784 9.72407 21.0194 5.57916 17.3809 1.90898C20.3551 0.738278 23.6139 0 26.9995 0C33.0427 0 38.6748 2.13046 43.1677 5.51588C43.5157 5.76901 43.8639 6.02224 44.1802 6.33854Z" fill="#FF7CB9"/>
<path d="M30.3221 28.2968C29.1831 28.7081 28.0758 29.1512 26.9999 29.6573C17.824 33.7707 10.9898 40.605 9.91391 47.123C9.88248 47.3128 9.85073 47.5027 9.81909 47.6925C3.90232 42.7565 0 35.3211 0 26.9996C0 26.1452 0.0316405 25.3226 0.0950269 24.4999C2.59452 24.9746 5.23122 25.1645 7.69929 25.1645C12.0024 25.1645 16.0839 24.595 19.2163 23.9621C21.9059 23.4244 24.5004 22.7282 27 21.9372C27.1898 21.874 27.3797 21.8107 27.5695 21.7473C28.5819 23.8672 29.4994 26.0504 30.3221 28.2968Z" fill="#FF7CB9"/>
<path d="M34.8466 52.7236C32.3788 53.483 29.721 53.9998 26.9999 53.9998C21.9058 53.9998 17.1281 52.4705 13.078 50.0024C12.9198 49.243 12.9198 48.452 13.0466 47.6294C13.869 42.5986 19.5645 36.9034 26.9999 33.1698C28.3921 32.4736 29.8476 31.809 31.3663 31.2712C33.5178 38.0424 34.7202 45.288 34.8466 52.7236Z" fill="#FF7CB9"/>
<path d="M53.7143 30.8282C52.3855 40.099 46.2368 47.8508 37.947 51.5528C37.7254 44.2123 36.4598 37.0615 34.3398 30.3221C41.4273 28.3604 48.1457 28.5819 53.7143 30.8282Z" fill="#FF637B"/>
<path d="M53.9991 26.9999V27.5694C47.9559 25.3229 40.7945 25.228 33.3273 27.3479C32.5047 25.0699 31.5555 22.8551 30.543 20.7036C35.732 18.7418 45.4457 14.2488 46.8062 8.83838C51.2043 13.6159 53.9991 20.0073 53.9991 26.9999Z" fill="#FF637B"/>
<path d="M30.3222 28.2969C29.1832 28.7082 28.0759 29.1513 27 29.6574V21.9372C27.1898 21.874 27.3797 21.8107 27.5695 21.7473C28.582 23.8673 29.4995 26.0505 30.3222 28.2969Z" fill="#FA5E97"/>
<path d="M31.3664 31.2712C33.5179 38.0423 34.7203 45.288 34.8467 52.7236C32.3789 53.483 29.7211 53.9998 27 53.9998V33.1698C28.3922 32.4736 29.8477 31.8091 31.3664 31.2712Z" fill="#FA5E97"/>
<path d="M29.0882 17.8558C28.4238 16.6218 27.7276 15.3877 27 14.217V0C33.0432 0 38.6753 2.13046 43.1683 5.51588C43.5163 5.76911 43.8645 6.02224 44.1808 6.33854L43.7378 8.07876C43.0418 10.8631 37.1567 14.8498 29.4364 17.7292L29.0882 17.8558Z" fill="#FA5E97"/>
<path d="M53.7143 30.8282C52.3855 40.099 46.2368 47.8508 37.947 51.5528C37.7254 44.2123 36.4598 37.0615 34.3398 30.3221C41.4273 28.3604 48.1457 28.5819 53.7143 30.8282Z" fill="#FA5E97"/>
<path d="M53.9991 26.9999V27.5694C47.9559 25.3229 40.7945 25.228 33.3273 27.3479C32.5047 25.0699 31.5555 22.8551 30.543 20.7036C35.732 18.7418 45.4457 14.2488 46.8062 8.83838C51.2043 13.6159 53.9991 20.0073 53.9991 26.9999Z" fill="#FA5E97"/>
</svg>
