<svg width="100" height="100" viewBox="0 0 100 100" fill="none" xmlns="http://www.w3.org/2000/svg">
<rect x="11.5" y="16.5" width="77" height="67" rx="6.5" stroke="white" stroke-width="3"/>
<path d="M11 30H89" stroke="white" stroke-width="3"/>
<path d="M31.8242 56.1895H26.1992V62H23.2695V47.7812H32.5273V50.1543H26.1992V53.8262H31.8242V56.1895ZM37.0195 62H34.1875V51.4336H37.0195V62ZM34.0215 48.6992C34.0215 48.276 34.1615 47.9277 34.4414 47.6543C34.7279 47.3809 35.1152 47.2441 35.6035 47.2441C36.0853 47.2441 36.4694 47.3809 36.7559 47.6543C37.0423 47.9277 37.1855 48.276 37.1855 48.6992C37.1855 49.1289 37.0391 49.4805 36.7461 49.7539C36.4596 50.0273 36.0788 50.1641 35.6035 50.1641C35.1283 50.1641 34.7441 50.0273 34.4512 49.7539C34.1647 49.4805 34.0215 49.1289 34.0215 48.6992ZM38.9434 56.6387C38.9434 55.0176 39.3275 53.7122 40.0957 52.7227C40.8704 51.7331 41.9121 51.2383 43.2207 51.2383C44.3796 51.2383 45.2812 51.6354 45.9258 52.4297L46.043 51.4336H48.6016V61.6484C48.6016 62.5729 48.39 63.377 47.9668 64.0605C47.5501 64.7441 46.9609 65.265 46.1992 65.623C45.4375 65.9811 44.5456 66.1602 43.5234 66.1602C42.7487 66.1602 41.9935 66.0039 41.2578 65.6914C40.5221 65.3854 39.9655 64.9883 39.5879 64.5L40.8379 62.7812C41.541 63.569 42.3939 63.9629 43.3965 63.9629C44.1452 63.9629 44.7279 63.7611 45.1445 63.3574C45.5612 62.9603 45.7695 62.3939 45.7695 61.6582V61.0918C45.1185 61.8275 44.2624 62.1953 43.2012 62.1953C41.9316 62.1953 40.903 61.7005 40.1152 60.7109C39.334 59.7148 38.9434 58.3965 38.9434 56.7559V56.6387ZM41.7656 56.8438C41.7656 57.8008 41.9577 58.5527 42.3418 59.0996C42.7259 59.64 43.2533 59.9102 43.9238 59.9102C44.7832 59.9102 45.3984 59.5879 45.7695 58.9434V54.5C45.3919 53.8555 44.7832 53.5332 43.9434 53.5332C43.2663 53.5332 42.7324 53.8099 42.3418 54.3633C41.9577 54.9167 41.7656 55.7435 41.7656 56.8438ZM53.4258 51.4336L53.5137 52.6152C54.2624 51.6973 55.2747 51.2383 56.5508 51.2383C57.9115 51.2383 58.8457 51.7754 59.3535 52.8496C60.0957 51.7754 61.1536 51.2383 62.5273 51.2383C63.6732 51.2383 64.526 51.5736 65.0859 52.2441C65.6458 52.9082 65.9258 53.9108 65.9258 55.252V62H63.0938V55.2617C63.0938 54.6628 62.9766 54.2266 62.7422 53.9531C62.5078 53.6732 62.0944 53.5332 61.502 53.5332C60.6556 53.5332 60.0697 53.9368 59.7441 54.7441L59.7539 62H56.9316V55.2715C56.9316 54.6595 56.8112 54.2168 56.5703 53.9434C56.3294 53.6699 55.9193 53.5332 55.3398 53.5332C54.5391 53.5332 53.9596 53.8652 53.6016 54.5293V62H50.7793V51.4336H53.4258ZM74.2266 62C74.0964 61.7461 74.002 61.4303 73.9434 61.0527C73.2598 61.8145 72.3711 62.1953 71.2773 62.1953C70.2422 62.1953 69.3828 61.8958 68.6992 61.2969C68.0221 60.6979 67.6836 59.9427 67.6836 59.0312C67.6836 57.9115 68.097 57.0521 68.9238 56.4531C69.7572 55.8542 70.9583 55.5514 72.5273 55.5449H73.8262V54.9395C73.8262 54.4512 73.6992 54.0605 73.4453 53.7676C73.1979 53.4746 72.804 53.3281 72.2637 53.3281C71.7884 53.3281 71.4141 53.4421 71.1406 53.6699C70.8737 53.8978 70.7402 54.2103 70.7402 54.6074H67.918C67.918 53.9954 68.1068 53.429 68.4844 52.9082C68.862 52.3874 69.3958 51.9805 70.0859 51.6875C70.776 51.388 71.5508 51.2383 72.4102 51.2383C73.7122 51.2383 74.7441 51.5671 75.5059 52.2246C76.2741 52.8757 76.6582 53.7936 76.6582 54.9785V59.5586C76.6647 60.5612 76.8047 61.3197 77.0781 61.834V62H74.2266ZM71.8926 60.0371C72.3092 60.0371 72.6934 59.946 73.0449 59.7637C73.3965 59.5749 73.6569 59.3242 73.8262 59.0117V57.1953H72.7715C71.3587 57.1953 70.6068 57.6836 70.5156 58.6602L70.5059 58.8262C70.5059 59.1777 70.6296 59.4674 70.877 59.6953C71.1243 59.9232 71.4629 60.0371 71.8926 60.0371Z" fill="white"/>
<circle cx="84" cy="26" r="1" fill="white"/>
<circle cx="81" cy="26" r="1" fill="white"/>
<circle cx="78" cy="26" r="1" fill="white"/>
</svg>
