<svg width="54" height="52" viewBox="0 0 54 52" fill="none" xmlns="http://www.w3.org/2000/svg">
<path d="M27 0C12.0825 0 0 11.8841 0 26.5411C0 38.2699 7.7355 48.2161 18.4613 51.7228C19.8113 51.9726 20.3062 51.1511 20.3062 50.4466C20.3062 49.8164 20.2838 48.1463 20.2725 45.9338C12.762 47.5341 11.178 42.3731 11.178 42.3731C9.9495 39.3098 8.17425 38.4905 8.17425 38.4905C5.7285 36.8452 8.36325 36.8789 8.36325 36.8789C11.0745 37.0635 12.4987 39.6136 12.4987 39.6136C14.9062 43.6718 18.819 42.4991 20.3625 41.8216C20.6055 40.1043 21.3008 38.9362 22.0725 38.2722C16.0763 37.6082 9.774 35.3259 9.774 25.1569C9.774 22.2602 10.8202 19.8923 12.5527 18.0355C12.249 17.3647 11.3378 14.666 12.789 11.0108C12.789 11.0108 15.0503 10.2995 20.214 13.732C22.374 13.1423 24.669 12.8497 26.964 12.8362C29.259 12.8497 31.554 13.1423 33.714 13.732C38.844 10.2995 41.1052 11.0108 41.1052 11.0108C42.5565 14.666 41.6452 17.3647 41.3753 18.0355C43.0965 19.8923 44.1427 22.2602 44.1427 25.1569C44.1427 35.3529 37.8315 37.5969 31.824 38.2497C32.769 39.0464 33.6465 40.6738 33.6465 43.1609C33.6465 46.7126 33.6128 49.5666 33.6128 50.4286C33.6128 51.1241 34.0853 51.9546 35.469 51.689C46.2713 48.2048 54 38.2519 54 26.5411C54 11.8841 41.9108 0 27 0Z" fill="white"/>
</svg>
