<svg width="100" height="100" viewBox="0 0 100 100" fill="none" xmlns="http://www.w3.org/2000/svg">
<rect x="11.5" y="16.5" width="77" height="67" rx="6.5" stroke="white" stroke-width="3"/>
<path d="M11 30H89" stroke="white" stroke-width="3"/>
<path d="M30.0215 55.3789L33.3613 56.5566V58.1973L28.3164 56.0586V54.6758L33.3613 52.5371V54.1777L30.0215 55.3789ZM41.8105 59H40.0527V55.3438H36.625V59H34.8672V50.4688H36.625V53.9258H40.0527V50.4688H41.8105V59ZM45.2676 51.1016V52.6602H46.3516V53.9023H45.2676V57.0664C45.2676 57.3008 45.3125 57.4688 45.4023 57.5703C45.4922 57.6719 45.6641 57.7227 45.918 57.7227C46.1055 57.7227 46.2715 57.709 46.416 57.6816V58.9648C46.084 59.0664 45.7422 59.1172 45.3906 59.1172C44.2031 59.1172 43.5977 58.5176 43.5742 57.3184V53.9023H42.6484V52.6602H43.5742V51.1016H45.2676ZM48.8828 52.6602L48.9355 53.3691C49.3848 52.8184 49.9922 52.543 50.7578 52.543C51.5742 52.543 52.1348 52.8652 52.4395 53.5098C52.8848 52.8652 53.5195 52.543 54.3438 52.543C55.0312 52.543 55.543 52.7441 55.8789 53.1465C56.2148 53.5449 56.3828 54.1465 56.3828 54.9512V59H54.6836V54.957C54.6836 54.5977 54.6133 54.3359 54.4727 54.1719C54.332 54.0039 54.084 53.9199 53.7285 53.9199C53.2207 53.9199 52.8691 54.1621 52.6738 54.6465L52.6797 59H50.9863V54.9629C50.9863 54.5957 50.9141 54.3301 50.7695 54.166C50.625 54.002 50.3789 53.9199 50.0312 53.9199C49.5508 53.9199 49.2031 54.1191 48.9883 54.5176V59H47.2949V52.6602H48.8828ZM59.4766 59H57.7773V50H59.4766V59ZM61.4102 59.7324H60.1504L63.291 50.4688H64.5508L61.4102 59.7324ZM68.8223 55.3613L65.418 54.1719V52.543L70.5215 54.6816V56.0586L65.418 58.2031V56.5684L68.8223 55.3613Z" fill="white"/>
<circle cx="84" cy="26" r="1" fill="white"/>
<circle cx="81" cy="26" r="1" fill="white"/>
<circle cx="78" cy="26" r="1" fill="white"/>
</svg>
