<svg width="100" height="100" viewBox="0 0 100 100" fill="none" xmlns="http://www.w3.org/2000/svg">
<rect x="11.5" y="16.5" width="77" height="67" rx="6.5" stroke="white" stroke-width="3"/>
<path d="M11 30H89" stroke="white" stroke-width="3"/>
<path d="M42.002 46.7812H44.9316V56.625C44.9316 57.5299 44.7298 58.3307 44.3262 59.0273C43.929 59.7174 43.3659 60.2513 42.6367 60.6289C41.9076 61.0065 41.084 61.1953 40.166 61.1953C38.6621 61.1953 37.4902 60.8145 36.6504 60.0527C35.8105 59.2845 35.3906 58.2005 35.3906 56.8008H38.3398C38.3398 57.4974 38.4863 58.0117 38.7793 58.3438C39.0723 58.6758 39.5345 58.8418 40.166 58.8418C40.7259 58.8418 41.1719 58.6497 41.5039 58.2656C41.8359 57.8815 42.002 57.3346 42.002 56.625V46.7812ZM54.8145 57.2695C54.8145 56.7161 54.6191 56.293 54.2285 56C53.8379 55.7005 53.1348 55.388 52.1191 55.0625C51.1035 54.7305 50.2995 54.4049 49.707 54.0859C48.0924 53.2135 47.2852 52.0384 47.2852 50.5605C47.2852 49.7923 47.5 49.1087 47.9297 48.5098C48.3659 47.9043 48.9876 47.4323 49.7949 47.0938C50.6087 46.7552 51.5202 46.5859 52.5293 46.5859C53.5449 46.5859 54.4499 46.7715 55.2441 47.1426C56.0384 47.5072 56.6536 48.0247 57.0898 48.6953C57.5326 49.3659 57.7539 50.1276 57.7539 50.9805H54.8242C54.8242 50.3294 54.6191 49.8249 54.209 49.4668C53.7988 49.1022 53.2227 48.9199 52.4805 48.9199C51.7643 48.9199 51.2077 49.0729 50.8105 49.3789C50.4134 49.6784 50.2148 50.0755 50.2148 50.5703C50.2148 51.0326 50.446 51.4199 50.9082 51.7324C51.377 52.0449 52.0638 52.3379 52.9688 52.6113C54.6354 53.1126 55.8496 53.7344 56.6113 54.4766C57.373 55.2188 57.7539 56.1432 57.7539 57.25C57.7539 58.4805 57.2884 59.4473 56.3574 60.1504C55.4264 60.847 54.1732 61.1953 52.5977 61.1953C51.5039 61.1953 50.5078 60.9967 49.6094 60.5996C48.7109 60.196 48.0241 59.6458 47.5488 58.9492C47.0801 58.2526 46.8457 57.4453 46.8457 56.5273H49.7852C49.7852 58.0964 50.7227 58.8809 52.5977 58.8809C53.2943 58.8809 53.8379 58.7409 54.2285 58.4609C54.6191 58.1745 54.8145 57.7773 54.8145 57.2695ZM59.5312 51.6152C59.5312 51.166 59.681 50.8014 59.9805 50.5215C60.2865 50.2415 60.6673 50.1016 61.123 50.1016C61.5853 50.1016 61.9661 50.2415 62.2656 50.5215C62.5716 50.8014 62.7246 51.166 62.7246 51.6152C62.7246 52.0579 62.5749 52.4193 62.2754 52.6992C61.9759 52.9727 61.5918 53.1094 61.123 53.1094C60.6608 53.1094 60.2799 52.9727 59.9805 52.6992C59.681 52.4193 59.5312 52.0579 59.5312 51.6152ZM60.5078 64.5645L59.0332 63.793L59.3848 63.1582C59.821 62.3639 60.0456 61.5729 60.0586 60.7852V58.5977H62.4414L62.4316 60.5508C62.4251 61.2734 62.2428 62.0026 61.8848 62.7383C61.5267 63.474 61.0677 64.0827 60.5078 64.5645Z" fill="white"/>
<circle cx="84" cy="26" r="1" fill="white"/>
<circle cx="81" cy="26" r="1" fill="white"/>
<circle cx="78" cy="26" r="1" fill="white"/>
</svg>
