<svg width="54" height="54" viewBox="0 0 54 54" fill="none" xmlns="http://www.w3.org/2000/svg">
<path d="M27 54C41.9117 54 54 41.9117 54 27C54 12.0883 41.9117 0 27 0C12.0883 0 0 12.0883 0 27C0 41.9117 12.0883 54 27 54Z" fill="#007AB9"/>
<path d="M42.1317 32.1727V43.3042H35.678V32.9187C35.678 30.311 34.7462 28.5302 32.4095 28.5302C30.6262 28.5302 29.5669 29.7291 29.0991 30.89C28.9292 31.3049 28.8854 31.881 28.8854 32.4629V43.3037H22.4311C22.4311 43.3037 22.5178 25.7141 22.4311 23.8933H28.8859V26.644C28.8729 26.6656 28.8546 26.6868 28.843 26.7075H28.8859V26.644C29.7435 25.3243 31.2731 23.4376 34.7024 23.4376C38.9484 23.4376 42.1317 26.2118 42.1317 32.1727ZM15.6795 14.5369C13.4717 14.5369 12.0273 15.9861 12.0273 17.8901C12.0273 19.7537 13.4299 21.2448 15.5947 21.2448H15.6366C17.8877 21.2448 19.2873 19.7537 19.2873 17.8901C19.2444 15.9861 17.8877 14.5369 15.6795 14.5369ZM12.4109 43.3042H18.8628V23.8933H12.4109V43.3042Z" fill="#F1F2F2"/>
</svg>
