<svg width="100" height="100" viewBox="0 0 100 100" fill="none" xmlns="http://www.w3.org/2000/svg">
<rect x="11.5" y="16.5" width="77" height="67" rx="6.5" stroke="white" stroke-width="3"/>
<path d="M11 30H89" stroke="white" stroke-width="3"/>
<path d="M38.5234 58.4746L41.7461 47.7812H45.0078L40.0566 62H37L32.0684 47.7812H35.3203L38.5234 58.4746ZM52.2246 60.9258C51.528 61.7721 50.5645 62.1953 49.334 62.1953C48.2012 62.1953 47.3353 61.8698 46.7363 61.2188C46.1439 60.5677 45.8411 59.6139 45.8281 58.3574V51.4336H48.6504V58.2598C48.6504 59.36 49.1517 59.9102 50.1543 59.9102C51.1113 59.9102 51.7689 59.5781 52.127 58.9141V51.4336H54.959V62H52.3027L52.2246 60.9258ZM61.9512 62.1953C60.4017 62.1953 59.1387 61.7201 58.1621 60.7695C57.1921 59.819 56.707 58.5527 56.707 56.9707V56.6973C56.707 55.6361 56.9121 54.6888 57.3223 53.8555C57.7324 53.0156 58.3118 52.3711 59.0605 51.9219C59.8158 51.4661 60.6751 51.2383 61.6387 51.2383C63.084 51.2383 64.2201 51.694 65.0469 52.6055C65.8802 53.5169 66.2969 54.8092 66.2969 56.4824V57.6348H59.5684C59.6595 58.3249 59.9329 58.8783 60.3887 59.2949C60.8509 59.7116 61.4336 59.9199 62.1367 59.9199C63.224 59.9199 64.0736 59.526 64.6855 58.7383L66.0723 60.291C65.6491 60.89 65.0762 61.3587 64.3535 61.6973C63.6309 62.0293 62.8301 62.1953 61.9512 62.1953ZM61.6289 53.5234C61.069 53.5234 60.6133 53.7122 60.2617 54.0898C59.9167 54.4674 59.6953 55.0078 59.5977 55.7109H63.5234V55.4863C63.5104 54.8613 63.3411 54.3796 63.0156 54.041C62.6901 53.696 62.2279 53.5234 61.6289 53.5234Z" fill="white"/>
<circle cx="84" cy="26" r="1" fill="white"/>
<circle cx="81" cy="26" r="1" fill="white"/>
<circle cx="78" cy="26" r="1" fill="white"/>
</svg>
